# xmcd
#
# Track frame offsets:
#	150
#	13950
#	26342
#	41032
#	59187
#	69922
#	87970
#	100402
#	115735
#	129582
#
# Disc length: 1896 seconds
# Revision: 2
# Processed by: cddbd v1.5.2PL0 Copyright (c) Steve Scherf et al.
# Submitted via: dBpowerAMP V12.0
#
DISCID=8807660a
DTITLE=Larry Gatlin - Larry Gatlin: Greatest Hits Encore
DYEAR=1991
DGENRE=Country
TTITLE0=Night Time Magic
TTITLE1=Statues Without Hearts
TTITLE2=I Just Wish You Were Someone I Love
TTITLE3=I've Done Enough Dyin' Today
TTITLE4=I Don't Wanna Cry
TTITLE5=Love Is Just A Game
TTITLE6=Broken Lady
TTITLE7=Bitter They Are, Harder They Fall
TTITLE8=Houston (Means I'm One Day Closer To You)
TTITLE9=All The Gold In California
EXTD=
EXTT0=
EXTT1=
EXTT2=
EXTT3=
EXTT4=
EXTT5=
EXTT6=
EXTT7=
EXTT8=
EXTT9=
PLAYORDER=
